<?xml version="1.0" encoding="utf-8"?>
<svg width="100mm" height="100mm" viewBox="0 0 100 100" version="1.1" id="svg24" xmlns="http://www.w3.org/2000/svg">
  <g id="layer1" transform="translate(0,-197)"/>
  <g id="layer2"/>
  <g id="layer3">
    <g id="g838">
      <ellipse ry="43.965836" rx="43.832199" cy="49.619694" cx="50.24667" id="path823" style="fill:#ffffff;fill-opacity:1;stroke:none;stroke-width:1.41354692;stroke-miterlimit:4;stroke-dasharray:none;stroke-opacity:1"/>
      <g transform="matrix(0.92678827,0,0,0.92760191,47.421459,-148.24845)" id="g1439">
        <path id="path4661" d="m 2.5932219,261.94281 c -22.5937949,0 -42.0186019,-15.31706 -47.2386359,-37.2469 -0.874089,-3.67017 -1.316144,-7.4605 -1.316144,-11.26529 0,-26.75035 21.780949,-48.51219 48.5547799,-48.51219 26.7738311,0 48.5547791,21.76184 48.5547791,48.51219 0,26.75035 -21.780948,48.51219 -48.5547791,48.51219 z m 0,-92.57433 c -24.3174749,0 -44.1008259,19.76711 -44.1008259,44.06214 0,3.4588 0.40197,6.90202 1.194773,10.23511 4.741235,19.9173 22.38446,33.82703 42.9060529,33.82703 24.3174751,0 44.1008251,-19.76711 44.1008251,-44.06214 0,-24.29503 -19.78335,-44.06214 -44.1008251,-44.06214 z" style="stroke-width:1.11300004"/>
        <path id="path4663" d="m -13.839641,206.0669 c -2.57884,0 -4.676652,-2.09708 -4.676652,-4.67366 0,-2.57658 2.097812,-4.67255 4.676652,-4.67255 2.578839,0 4.6766509,2.09597 4.6766509,4.67255 0,2.57658 -2.0966989,4.67366 -4.6766509,4.67366 z m 0,-7.1223 c -1.350662,0 -2.449675,1.09805 -2.449675,2.44753 0,1.35059 1.099013,2.44864 2.449675,2.44864 1.350661,0 2.449674,-1.09805 2.449674,-2.44864 0,-1.34836 -1.099013,-2.44753 -2.449674,-2.44753 z" style="stroke-width:1.11300004"/>
        <path id="path4665" d="m 18.234395,206.0669 c -2.57884,0 -4.677765,-2.09708 -4.677765,-4.67366 0,-2.57658 2.098925,-4.67255 4.677765,-4.67255 2.578839,0 4.676652,2.09597 4.676652,4.67255 0,2.57658 -2.097813,4.67366 -4.676652,4.67366 z m 0,-7.1223 c -1.351775,0 -2.450788,1.09805 -2.450788,2.44753 0,1.35059 1.099013,2.44864 2.450788,2.44864 1.350661,0 2.449675,-1.09805 2.449675,-2.44864 0,-1.34836 -1.099014,-2.44753 -2.449675,-2.44753 z" style="stroke-width:1.11300004"/>
        <path id="path4667" d="m 14.092218,233.43803 c -6.6241431,0 -12.2216501,-3.81591 -12.2216501,-8.33049 0,-3.55225 2.65567,-7.35704 6.608554,-7.35704 1.437514,0 2.8371691,0.62857 4.4027341,1.45851 4.232369,2.24171 12.096939,1.1648 12.120322,1.16035 0.374132,-0.069 0.767194,0.0645 1.025523,0.35044 0.257216,0.28591 0.348522,0.6853 0.241627,1.05466 -0.139186,0.47727 -3.499694,11.66357 -12.17711,11.66357 z m -9.9935601,-8.33049 c -0.07572,2.88697 4.105432,6.10547 9.9946731,6.10547 5.225602,0 8.22534,-5.54365 9.424567,-8.4028 -1.5767,0.35378 -8.281014,0.64748 -11.853085,-1.73886 -4.1533121,-2.77349 -7.4937781,1.25936 -7.5661551,4.03619 z" style="stroke-width:1.11300004"/>
        <path id="path4669" d="m -9.3355801,233.43803 c -8.6774159,0 -12.0379249,-11.18742 -12.1771109,-11.66357 -0.108008,-0.36936 -0.0167,-0.76875 0.241627,-1.05466 0.25833,-0.28814 0.646937,-0.42053 1.026637,-0.35044 0.02227,0.004 7.851207,1.54527 12.1192089,-1.16035 1.496528,-0.94898 2.965219,-1.45851 4.402733,-1.45851 3.95288404,0 6.608554,3.80479 6.608554,7.35704 0,4.51569 -5.597506,8.33049 -12.221649,8.33049 z m -9.4245669,-10.62671 c 1.199227,2.85804 4.198965,8.4028 9.4245669,8.4028 5.88924,0 9.99467204,-3.2185 9.99467204,-6.10546 0,-3.24075 -2.86166504,-6.76296 -7.56615404,-4.03508 -4.4428189,2.57546 -10.4033229,2.27731 -11.8530849,1.73774 z" style="stroke-width:1.11300004"/>
        <path id="path4671" d="m -24.37881,251.72995 c -0.615759,0 -1.113489,-0.49729 -1.113489,-1.11251 v -48.96053 c 0,-0.61522 0.49773,-1.11251 1.113489,-1.11251 0.615759,0 1.113488,0.49729 1.113488,1.11251 v 48.96053 c 0,0.61522 -0.497729,1.11251 -1.113488,1.11251 z" style="stroke-width:1.11300004"/>
        <path id="path4673" d="m 41.438382,191.68991 c -14.192525,0.001 -29.280294,-10.04041 -32.3279121,-12.17532 -3.950657,1.74219 -26.8005549,11.37209 -46.8210779,11.14291 -0.615759,-0.008 -1.106807,-0.51286 -1.099013,-1.12697 0.0067,-0.61411 0.516659,-1.09805 1.127964,-1.09805 0.254989,0.003 0.509978,0.006 0.76608,0.006 21.221977,0 45.4403519,-11.09619 45.6853199,-11.20855 0.367451,-0.17022 0.798371,-0.12683 1.125736,0.11236 0.1681371,0.12349 16.7424141,12.12193 31.5551511,12.12193 0.268351,0 0.533361,-0.003 0.800598,-0.0122 0.634689,0.0223 1.129078,0.46392 1.146893,1.07914 0.01782,0.61522 -0.465438,1.12808 -1.080083,1.14588 -0.292848,0.009 -0.587922,0.0134 -0.879656,0.0134 z" style="stroke-width:1.11300004"/>
        <path id="path4675" d="m -13.839641,213.0201 c -6.417035,0 -11.635955,-5.21545 -11.635955,-11.62686 0,-6.4114 5.220034,-11.62575 11.635955,-11.62575 6.4159199,0 11.6359539,5.21546 11.6359539,11.62575 0,6.4103 -5.21892,11.62686 -11.6359539,11.62686 z m 0,-21.02869 c -5.187743,0 -9.408978,4.21753 -9.408978,9.40072 0,5.1843 4.221235,9.40184 9.408978,9.40184 5.1877429,0 9.4089769,-4.21754 9.4089769,-9.40184 0,-5.18208 -4.221234,-9.40072 -9.4089769,-9.40072 z" style="stroke-width:1.11300004"/>
      </g>
    </g>
  </g>
</svg>