<?xml version="1.0" encoding="UTF-8" standalone="no"?>
<!-- Created with Inkscape (http://www.inkscape.org/) -->

<svg
   xmlns:dc="http://purl.org/dc/elements/1.1/"
   xmlns:cc="http://creativecommons.org/ns#"
   xmlns:rdf="http://www.w3.org/1999/02/22-rdf-syntax-ns#"
   xmlns:svg="http://www.w3.org/2000/svg"
   xmlns="http://www.w3.org/2000/svg"
   xmlns:sodipodi="http://sodipodi.sourceforge.net/DTD/sodipodi-0.dtd"
   xmlns:inkscape="http://www.inkscape.org/namespaces/inkscape"
   width="100mm"
   height="100mm"
   viewBox="0 0 100 100"
   version="1.1"
   id="svg24"
   inkscape:version="0.92.5 (2060ec1f9f, 2020-04-08)"
   sodipodi:docname="logo.svg">
  <defs
     id="defs18" />
  <sodipodi:namedview
     id="base"
     pagecolor="#ffffff"
     bordercolor="#666666"
     borderopacity="1.0"
     inkscape:pageopacity="0.0"
     inkscape:pageshadow="2"
     inkscape:zoom="0.98994949"
     inkscape:cx="291.21532"
     inkscape:cy="264.5185"
     inkscape:document-units="mm"
     inkscape:current-layer="layer1"
     showgrid="false"
     inkscape:window-width="1856"
     inkscape:window-height="1009"
     inkscape:window-x="64"
     inkscape:window-y="34"
     inkscape:window-maximized="1" />
  <metadata
     id="metadata21">
    <rdf:RDF>
      <cc:Work
         rdf:about="">
        <dc:format>image/svg+xml</dc:format>
        <dc:type
           rdf:resource="http://purl.org/dc/dcmitype/StillImage" />
        <dc:title></dc:title>
      </cc:Work>
    </rdf:RDF>
  </metadata>
  <g
     inkscape:label="Layer 1"
     inkscape:groupmode="layer"
     id="layer1"
     transform="translate(0,-197)">
    <g
       transform="matrix(1.1134885,0,0,1.1125118,-5.5072271,191.48099)"
       id="g4677"
       inkscape:export-xdpi="96"
       inkscape:export-ydpi="96">
      <path
         inkscape:connector-curvature="0"
         d="M 50,93.606 C 29.709,93.606 12.264,79.838 7.576,60.126 6.791,56.827 6.394,53.42 6.394,50 6.394,25.955 25.955,6.394 50,6.394 74.045,6.394 93.606,25.955 93.606,50 93.606,74.045 74.045,93.606 50,93.606 Z m 0,-83.212 c -21.839,0 -39.606,17.768 -39.606,39.606 0,3.109 0.361,6.204 1.073,9.2 C 15.725,77.103 31.57,89.606 50,89.606 71.839,89.606 89.606,71.838 89.606,50 89.606,28.162 71.839,10.394 50,10.394 Z"
         id="path4661" />
      <path
         inkscape:connector-curvature="0"
         d="m 35.242,43.381 c -2.316,0 -4.2,-1.885 -4.2,-4.201 0,-2.316 1.884,-4.2 4.2,-4.2 2.316,0 4.2,1.884 4.2,4.2 0,2.316 -1.883,4.201 -4.2,4.201 z m 0,-6.402 c -1.213,0 -2.2,0.987 -2.2,2.2 0,1.214 0.987,2.201 2.2,2.201 1.213,0 2.2,-0.987 2.2,-2.201 0,-1.212 -0.987,-2.2 -2.2,-2.2 z"
         id="path4663" />
      <path
         inkscape:connector-curvature="0"
         d="m 64.047,43.381 c -2.316,0 -4.201,-1.885 -4.201,-4.201 0,-2.316 1.885,-4.2 4.201,-4.2 2.316,0 4.2,1.884 4.2,4.2 0,2.316 -1.884,4.201 -4.2,4.201 z m 0,-6.402 c -1.214,0 -2.201,0.987 -2.201,2.2 0,1.214 0.987,2.201 2.201,2.201 1.213,0 2.2,-0.987 2.2,-2.201 0,-1.212 -0.987,-2.2 -2.2,-2.2 z"
         id="path4665" />
      <path
         inkscape:connector-curvature="0"
         d="m 60.327,67.984 c -5.949,0 -10.976,-3.43 -10.976,-7.488 0,-3.193 2.385,-6.613 5.935,-6.613 1.291,0 2.548,0.565 3.954,1.311 3.801,2.015 10.864,1.047 10.885,1.043 0.336,-0.062 0.689,0.058 0.921,0.315 0.231,0.257 0.313,0.616 0.217,0.948 -0.125,0.429 -3.143,10.484 -10.936,10.484 z m -8.975,-7.488 c -0.068,2.595 3.687,5.488 8.976,5.488 4.693,0 7.387,-4.983 8.464,-7.553 -1.416,0.318 -7.437,0.582 -10.645,-1.563 -3.73,-2.493 -6.73,1.132 -6.795,3.628 z"
         id="path4667" />
      <path
         inkscape:connector-curvature="0"
         d="m 39.287,67.984 c -7.793,0 -10.811,-10.056 -10.936,-10.484 -0.097,-0.332 -0.015,-0.691 0.217,-0.948 0.232,-0.259 0.581,-0.378 0.922,-0.315 0.02,0.004 7.051,1.389 10.884,-1.043 1.344,-0.853 2.663,-1.311 3.954,-1.311 3.55,0 5.935,3.42 5.935,6.613 0,4.059 -5.027,7.488 -10.976,7.488 z m -8.464,-9.552 c 1.077,2.569 3.771,7.553 8.464,7.553 5.289,0 8.976,-2.893 8.976,-5.488 0,-2.913 -2.57,-6.079 -6.795,-3.627 -3.99,2.315 -9.343,2.047 -10.645,1.562 z"
         id="path4669" />
      <path
         inkscape:connector-curvature="0"
         d="m 25.777,84.426 c -0.553,0 -1,-0.447 -1,-1 V 39.417 c 0,-0.553 0.447,-1 1,-1 0.553,0 1,0.447 1,1 v 44.009 c 0,0.553 -0.447,1 -1,1 z"
         id="path4671" />
      <path
         inkscape:connector-curvature="0"
         d="M 84.886,30.458 C 72.14,30.459 58.59,21.433 55.853,19.514 52.305,21.08 31.784,29.736 13.804,29.53 13.251,29.523 12.81,29.069 12.817,28.517 c 0.006,-0.552 0.464,-0.987 1.013,-0.987 0.229,0.003 0.458,0.005 0.688,0.005 19.059,0 40.809,-9.974 41.029,-10.075 0.33,-0.153 0.717,-0.114 1.011,0.101 0.151,0.111 15.036,10.896 28.339,10.896 0.241,0 0.479,-0.003 0.719,-0.011 0.57,0.02 1.014,0.417 1.03,0.97 0.016,0.553 -0.418,1.014 -0.97,1.03 -0.263,0.008 -0.528,0.012 -0.79,0.012 z"
         id="path4673" />
      <path
         inkscape:connector-curvature="0"
         d="m 35.242,49.631 c -5.763,0 -10.45,-4.688 -10.45,-10.451 0,-5.763 4.688,-10.45 10.45,-10.45 5.762,0 10.45,4.688 10.45,10.45 0,5.762 -4.687,10.451 -10.45,10.451 z m 0,-18.902 c -4.659,0 -8.45,3.791 -8.45,8.45 0,4.66 3.791,8.451 8.45,8.451 4.659,0 8.45,-3.791 8.45,-8.451 0,-4.658 -3.791,-8.45 -8.45,-8.45 z"
         id="path4675" />
    </g>
  </g>
</svg>
